# xmcd
#
# Track frame offsets:
#	150
#	14387
#	25240
#
# Disc length: 493 seconds
#
# Revision: 0
# Processed by: cddbd v1.5.2PL0 Copyright (c) Steve Scherf et al.
# Submitted via: audiograbber 1.83.01
#
DISCID=1901eb03
DTITLE=Honey B and The Kings of Sting - Jumpin' From 6 to 6 (Single and Bonus Track
DTITLE=s)
DYEAR=2008
DGENRE=Rock and Roll
TTITLE0=Jumpin' From 6 to 6
TTITLE1=Jump Jack Jump
TTITLE2=Love Roller Coaster (Demo)
EXTD=For More Info Please Visit www.kingsofsting.com
EXTT0=
EXTT1=
EXTT2=Recorded in 2007 when the band was a 6 Piece with a different drummer
PLAYORDER=
